# xmcd CD database file
#
# Track frame offsets:
#	150
#	14663
#	32932
#	49502
#	70124
#	87321
#	113732
#	131278
#	144285
#	156551
#	175506
#	190697
#	218015
#	239910
#	252194
#	264807
#	289222
#
# Disc length: 4213 seconds
#
# Revision: 2
# Processed by: cddbd v1.5.2PL0 Copyright (c) Steve Scherf et al.
# Submitted via: CDex 1.70beta2
#
DISCID=ee107311
DTITLE=Andreas Vollenweider - Andreas Vollenweider and Friends 25 Years Live, 1982-2007 [CD 2)
DYEAR=2007
DGENRE=New Age
TTITLE0=Pearls and Tears
TTITLE1=First Piece
TTITLE2=See, My Love
TTITLE3=And The Long Shadows
TTITLE4=Letters To A Young Rose
TTITLE5=Book Of Roses
TTITLE6=Song Of Isolde
TTITLE7=Sailor
TTITLE8=The Years In The Forest
TTITLE9=Arion
TTITLE10=Desert Of Rain
TTITLE11=Princess Kira
TTITLE12=Passionata
TTITLE13=Hey You! Yes You
TTITLE14=Seven Doors
TTITLE15=Pilgrim
TTITLE16=Pyramid
EXTD=YEAR: 2007
EXTT0=
EXTT1=
EXTT2=
EXTT3=
EXTT4=
EXTT5=
EXTT6=
EXTT7=
EXTT8=
EXTT9=
EXTT10=
EXTT11=
EXTT12=
EXTT13=
EXTT14=
EXTT15=
EXTT16=
PLAYORDER=
